<svg xmlns="http://www.w3.org/2000/svg" xmlns:xlink="http://www.w3.org/1999/xlink" width="260" zoomAndPan="magnify" viewBox="0 0 194.87999 44.999999" height="60" preserveAspectRatio="xMidYMid meet" version="1.0"><defs><clipPath id="6f214057af"><path d="M 105 1.5 L 109 1.5 L 109 43.476562 L 105 43.476562 Z M 105 1.5 " clip-rule="nonzero"/></clipPath><clipPath id="158369d681"><path d="M 21.769531 17 L 25 17 L 25 28 L 21.769531 28 Z M 21.769531 17 " clip-rule="nonzero"/></clipPath><clipPath id="218bd00020"><path d="M 170 17 L 173.175781 17 L 173.175781 28 L 170 28 Z M 170 17 " clip-rule="nonzero"/></clipPath></defs><g clip-path="url(#6f214057af)"><path fill="#000000" d="M 107.078125 1.5 C 107.722656 1.5 108.246094 2.023438 108.246094 2.667969 L 108.246094 42.308594 C 108.246094 42.953125 107.722656 43.476562 107.078125 43.476562 C 106.433594 43.476562 105.914062 42.953125 105.914062 42.308594 L 105.914062 2.667969 C 105.914062 2.023438 106.433594 1.5 107.078125 1.5 Z M 107.078125 1.5 " fill-opacity="1" fill-rule="evenodd"/></g><path fill="#000000" d="M 100.476562 5.234375 C 101.121094 5.234375 101.640625 5.753906 101.640625 6.398438 L 101.640625 37.179688 C 101.640625 37.824219 101.121094 38.34375 100.476562 38.34375 C 99.832031 38.34375 99.308594 37.824219 99.308594 37.179688 L 99.308594 6.398438 C 99.308594 5.753906 99.832031 5.234375 100.476562 5.234375 Z M 100.476562 5.234375 " fill-opacity="1" fill-rule="evenodd"/><path fill="#000000" d="M 113.683594 6.164062 C 114.328125 6.164062 114.851562 6.6875 114.851562 7.332031 L 114.851562 38.113281 C 114.851562 38.757812 114.328125 39.277344 113.683594 39.277344 C 113.039062 39.277344 112.515625 38.757812 112.515625 38.113281 L 112.515625 7.332031 C 112.515625 6.6875 113.039062 6.164062 113.683594 6.164062 Z M 113.683594 6.164062 " fill-opacity="1" fill-rule="evenodd"/><path fill="#000000" d="M 132.894531 4.765625 C 133.539062 4.765625 134.058594 5.289062 134.058594 5.933594 L 134.058594 36.714844 C 134.058594 37.355469 133.539062 37.878906 132.894531 37.878906 C 132.25 37.878906 131.726562 37.355469 131.726562 36.714844 L 131.726562 5.933594 C 131.726562 5.289062 132.25 4.765625 132.894531 4.765625 Z M 132.894531 4.765625 " fill-opacity="1" fill-rule="evenodd"/><path fill="#000000" d="M 74.660156 5.699219 C 75.304688 5.699219 75.828125 6.222656 75.828125 6.863281 L 75.828125 37.644531 C 75.828125 38.289062 75.304688 38.8125 74.660156 38.8125 C 74.015625 38.8125 73.492188 38.289062 73.492188 37.644531 L 73.492188 6.863281 C 73.492188 6.222656 74.015625 5.699219 74.660156 5.699219 Z M 74.660156 5.699219 " fill-opacity="1" fill-rule="evenodd"/><path fill="#000000" d="M 68.054688 10.828125 C 68.699219 10.828125 69.222656 11.351562 69.222656 11.996094 L 69.222656 33.449219 C 69.222656 34.09375 68.699219 34.613281 68.054688 34.613281 C 67.410156 34.613281 66.890625 34.09375 66.890625 33.449219 L 66.890625 11.996094 C 66.890625 11.351562 67.410156 10.828125 68.054688 10.828125 Z M 68.054688 10.828125 " fill-opacity="1" fill-rule="evenodd"/><path fill="#000000" d="M 81.265625 10.828125 C 81.910156 10.828125 82.429688 11.351562 82.429688 11.996094 L 82.429688 33.449219 C 82.429688 34.09375 81.910156 34.613281 81.265625 34.613281 C 80.621094 34.613281 80.097656 34.09375 80.097656 33.449219 L 80.097656 11.996094 C 80.097656 11.351562 80.621094 10.828125 81.265625 10.828125 Z M 81.265625 10.828125 " fill-opacity="1" fill-rule="evenodd"/><path fill="#000000" d="M 87.867188 15.027344 C 88.511719 15.027344 89.035156 15.546875 89.035156 16.191406 L 89.035156 27.851562 C 89.035156 28.496094 88.511719 29.019531 87.867188 29.019531 C 87.222656 29.019531 86.699219 28.496094 86.699219 27.851562 L 86.699219 16.191406 C 86.699219 15.546875 87.222656 15.027344 87.867188 15.027344 Z M 87.867188 15.027344 " fill-opacity="1" fill-rule="evenodd"/><path fill="#000000" d="M 120.285156 15.492188 C 120.929688 15.492188 121.453125 16.015625 121.453125 16.660156 L 121.453125 28.320312 C 121.453125 28.960938 120.929688 29.484375 120.285156 29.484375 C 119.640625 29.484375 119.121094 28.960938 119.121094 28.320312 L 119.121094 16.660156 C 119.121094 16.015625 119.640625 15.492188 120.285156 15.492188 Z M 120.285156 15.492188 " fill-opacity="1" fill-rule="evenodd"/><path fill="#000000" d="M 139.496094 14.558594 C 140.140625 14.558594 140.664062 15.082031 140.664062 15.726562 L 140.664062 27.386719 C 140.664062 28.03125 140.140625 28.550781 139.496094 28.550781 C 138.851562 28.550781 138.332031 28.03125 138.332031 27.386719 L 138.332031 15.726562 C 138.332031 15.082031 138.851562 14.558594 139.496094 14.558594 Z M 139.496094 14.558594 " fill-opacity="1" fill-rule="evenodd"/><path fill="#000000" d="M 152.707031 14.558594 C 153.347656 14.558594 153.871094 15.082031 153.871094 15.726562 L 153.871094 27.386719 C 153.871094 28.03125 153.347656 28.550781 152.707031 28.550781 C 152.0625 28.550781 151.539062 28.03125 151.539062 27.386719 L 151.539062 15.726562 C 151.539062 15.082031 152.0625 14.558594 152.707031 14.558594 Z M 152.707031 14.558594 " fill-opacity="1" fill-rule="evenodd"/><path fill="#000000" d="M 29.632812 14.558594 C 30.277344 14.558594 30.800781 15.082031 30.800781 15.726562 L 30.800781 27.386719 C 30.800781 28.03125 30.277344 28.550781 29.632812 28.550781 C 28.988281 28.550781 28.46875 28.03125 28.46875 27.386719 L 28.46875 15.726562 C 28.46875 15.082031 28.988281 14.558594 29.632812 14.558594 Z M 29.632812 14.558594 " fill-opacity="1" fill-rule="evenodd"/><path fill="#000000" d="M 165.3125 14.558594 C 165.957031 14.558594 166.480469 15.082031 166.480469 15.726562 L 166.480469 27.386719 C 166.480469 28.03125 165.957031 28.550781 165.3125 28.550781 C 164.667969 28.550781 164.144531 28.03125 164.144531 27.386719 L 164.144531 15.726562 C 164.144531 15.082031 164.667969 14.558594 165.3125 14.558594 Z M 165.3125 14.558594 " fill-opacity="1" fill-rule="evenodd"/><path fill="#000000" d="M 42.242188 14.558594 C 42.886719 14.558594 43.410156 15.082031 43.410156 15.726562 L 43.410156 27.386719 C 43.410156 28.03125 42.886719 28.550781 42.242188 28.550781 C 41.597656 28.550781 41.074219 28.03125 41.074219 27.386719 L 41.074219 15.726562 C 41.074219 15.082031 41.597656 14.558594 42.242188 14.558594 Z M 42.242188 14.558594 " fill-opacity="1" fill-rule="evenodd"/><path fill="#000000" d="M 62.054688 14.558594 C 62.699219 14.558594 63.21875 15.082031 63.21875 15.726562 L 63.21875 27.386719 C 63.21875 28.03125 62.699219 28.550781 62.054688 28.550781 C 61.410156 28.550781 60.886719 28.03125 60.886719 27.386719 L 60.886719 15.726562 C 60.886719 15.082031 61.410156 14.558594 62.054688 14.558594 Z M 62.054688 14.558594 " fill-opacity="1" fill-rule="evenodd"/><path fill="#000000" d="M 55.449219 17.824219 C 56.09375 17.824219 56.617188 18.347656 56.617188 18.992188 L 56.617188 25.988281 C 56.617188 26.628906 56.09375 27.152344 55.449219 27.152344 C 54.804688 27.152344 54.28125 26.628906 54.28125 25.988281 L 54.28125 18.992188 C 54.28125 18.347656 54.804688 17.824219 55.449219 17.824219 Z M 55.449219 17.824219 " fill-opacity="1" fill-rule="evenodd"/><path fill="#000000" d="M 146.101562 17.824219 C 146.746094 17.824219 147.269531 18.347656 147.269531 18.992188 L 147.269531 25.988281 C 147.269531 26.628906 146.746094 27.152344 146.101562 27.152344 C 145.457031 27.152344 144.933594 26.628906 144.933594 25.988281 L 144.933594 18.992188 C 144.933594 18.347656 145.457031 17.824219 146.101562 17.824219 Z M 146.101562 17.824219 " fill-opacity="1" fill-rule="evenodd"/><g clip-path="url(#158369d681)"><path fill="#000000" d="M 23.03125 17.824219 C 23.675781 17.824219 24.199219 18.347656 24.199219 18.992188 L 24.199219 25.988281 C 24.199219 26.628906 23.675781 27.152344 23.03125 27.152344 C 22.386719 27.152344 21.863281 26.628906 21.863281 25.988281 L 21.863281 18.992188 C 21.863281 18.347656 22.386719 17.824219 23.03125 17.824219 Z M 23.03125 17.824219 " fill-opacity="1" fill-rule="evenodd"/></g><g clip-path="url(#218bd00020)"><path fill="#000000" d="M 171.917969 17.824219 C 172.5625 17.824219 173.082031 18.347656 173.082031 18.992188 L 173.082031 25.988281 C 173.082031 26.628906 172.5625 27.152344 171.917969 27.152344 C 171.273438 27.152344 170.75 26.628906 170.75 25.988281 L 170.75 18.992188 C 170.75 18.347656 171.273438 17.824219 171.917969 17.824219 Z M 171.917969 17.824219 " fill-opacity="1" fill-rule="evenodd"/></g><path fill="#000000" d="M 48.84375 17.824219 C 49.488281 17.824219 50.011719 18.347656 50.011719 18.992188 L 50.011719 25.988281 C 50.011719 26.628906 49.488281 27.152344 48.84375 27.152344 C 48.199219 27.152344 47.679688 26.628906 47.679688 25.988281 L 47.679688 18.992188 C 47.679688 18.347656 48.199219 17.824219 48.84375 17.824219 Z M 48.84375 17.824219 " fill-opacity="1" fill-rule="evenodd"/><path fill="#000000" d="M 94.472656 10.363281 C 95.117188 10.363281 95.640625 10.886719 95.640625 11.527344 L 95.640625 32.515625 C 95.640625 33.160156 95.117188 33.683594 94.472656 33.683594 C 93.828125 33.683594 93.304688 33.160156 93.304688 32.515625 L 93.304688 11.527344 C 93.304688 10.886719 93.828125 10.363281 94.472656 10.363281 Z M 94.472656 10.363281 " fill-opacity="1" fill-rule="evenodd"/><path fill="#000000" d="M 126.890625 10.828125 C 127.535156 10.828125 128.058594 11.351562 128.058594 11.996094 L 128.058594 32.980469 C 128.058594 33.625 127.535156 34.148438 126.890625 34.148438 C 126.246094 34.148438 125.722656 33.625 125.722656 32.980469 L 125.722656 11.996094 C 125.722656 11.351562 126.246094 10.828125 126.890625 10.828125 Z M 126.890625 10.828125 " fill-opacity="1" fill-rule="evenodd"/><path fill="#000000" d="M 158.707031 9.429688 C 159.351562 9.429688 159.875 9.953125 159.875 10.597656 L 159.875 31.582031 C 159.875 32.226562 159.351562 32.75 158.707031 32.75 C 158.0625 32.75 157.542969 32.226562 157.542969 31.582031 L 157.542969 10.597656 C 157.542969 9.953125 158.0625 9.429688 158.707031 9.429688 Z M 158.707031 9.429688 " fill-opacity="1" fill-rule="evenodd"/><path fill="#000000" d="M 36.238281 9.429688 C 36.882812 9.429688 37.40625 9.953125 37.40625 10.597656 L 37.40625 31.582031 C 37.40625 32.226562 36.882812 32.75 36.238281 32.75 C 35.59375 32.75 35.070312 32.226562 35.070312 31.582031 L 35.070312 10.597656 C 35.070312 9.953125 35.59375 9.429688 36.238281 9.429688 Z M 36.238281 9.429688 " fill-opacity="1" fill-rule="evenodd"/></svg>